<svg width="136" height="136" version="1.1" xmlns="http://www.w3.org/2000/svg" xmlns:xlink="http://www.w3.org/1999/xlink"><path d="M119.27 115.09L119.27 115.09Q118.18 115.23 116.14 115.23L116.14 115.23Q91.80 115.23 86.63 87.75L86.63 87.75Q83.64 71.57 87.58 50.35L87.58 50.35Q89.49 40.97 89.76 37.30L89.76 37.30Q86.90 37.03 77.93 40.29L77.93 40.29Q76.57 40.70 75.89 40.97L75.89 40.97Q75.07 44.78 74.66 57.15L74.66 57.15Q74.53 60.55 74.26 63.00L74.26 63.00Q70.72 97.55 56.30 111.01L56.30 111.01Q55.22 112.23 53.31 112.37L53.31 112.37L53.58 110.60Q68.14 87.21 68.14 53.07L68.14 53.07Q68.14 42.19 65.69 37.71L65.69 37.71L65.42 37.16Q65.01 35.12 67.46 35.53L67.46 35.53L73.85 37.30Q77.25 37.30 89.62 30.91L89.62 30.91Q90.44 30.50 90.98 30.23L90.98 30.23Q98.33 30.23 102.95 35.67L102.95 35.67L102.95 36.75Q92.07 46.82 91.39 70.07L91.39 70.07L91.39 81.23Q91.66 92.11 99.69 100.81L99.69 100.81Q102.95 104.35 106.90 106.39L106.90 106.39Q111.11 106.66 112.61 104.48L112.61 104.48Q113.42 103.12 115.33 94.96L115.33 94.96Q115.87 92.51 116.42 91.15L116.42 91.15Q117.50 92.24 117.78 94.69L117.78 94.69Q119.00 104.21 120.77 110.87L120.77 110.87L121.04 111.83L121.04 111.96Q121.04 114.00 119.27 115.09ZM63.38 18.94L66.23 21.93Q66.23 23.43 64.19 26.55L64.19 26.55Q63.65 27.37 63.38 28.05L63.38 28.05L60.38 37.16Q59.30 39.75 57.12 41.24L57.12 41.24Q55.49 40.70 55.22 37.30L55.22 37.30Q55.08 36.48 54.94 36.07L54.94 36.07Q44.47 36.07 28.15 42.19L28.15 42.19Q21.22 44.78 17.27 47.36L17.27 47.36Q15.91 47.36 13.46 44.78L13.46 44.78Q12.92 44.23 12.65 43.96L12.65 43.96Q12.65 43.15 15.23 38.79L15.23 38.79Q20.13 30.91 17.14 23.43L17.14 23.43Q17.14 21.79 17.95 21.39L17.95 21.39Q21.35 22.07 24.07 26.01L24.07 26.01Q23.39 33.08 21.90 38.66L21.90 38.66L22.71 39.07Q26.38 38.79 36.45 35.26L36.45 35.26L35.77 17.71Q35.22 12.95 33.86 9.42L33.86 9.42Q33.73 5.61 41.89 10.51L41.89 10.51Q44.34 11.87 45.02 12.68L45.02 12.68Q41.75 27.51 40.94 34.31L40.94 34.31L54.13 31.99Q54.54 31.86 54.94 31.86L54.94 31.86Q59.43 24.65 57.66 19.35L57.66 19.35Q57.53 18.67 57.26 18.12L57.26 18.12Q56.98 12.95 63.38 18.94L63.38 18.94ZM55.90 49.67L55.90 49.67Q55.90 51.58 52.90 52.39L52.90 52.39L28.97 58.79Q26.66 59.47 22.58 57.70L22.58 57.70L20.13 56.20Q20.54 55.39 22.30 54.71L22.30 54.71L38.22 50.90L47.87 47.91Q48.82 47.63 49.50 47.63L49.50 47.63Q51.68 47.36 53.86 48.31L53.86 48.31Q55.08 48.99 55.90 49.67ZM57.53 95.37L57.53 95.37Q56.44 97.27 53.04 98.77L53.04 98.77Q51.14 99.59 41.89 102.71L41.89 102.71Q41.62 102.71 41.34 102.85L41.34 102.85Q22.98 109.24 13.06 114.27L13.06 114.27Q9.11 113.46 4.08 108.56L4.08 108.56Q4.08 105.98 5.17 105.57L5.17 105.57Q5.58 105.57 11.02 105.43L11.02 105.43Q12.10 105.43 12.92 105.30L12.92 105.30Q15.64 104.89 35.63 99.99L35.63 99.99Q37.26 99.59 38.62 99.18L38.62 99.18Q42.30 89.93 42.43 85.44L42.43 85.44Q42.43 83.81 42.16 82.04L42.16 82.04L41.75 81.63Q30.87 83.67 26.93 85.03L26.93 85.03L26.66 86.94Q24.21 86.94 22.71 84.49L22.71 84.49Q22.17 83.54 18.63 75.65L18.63 75.65Q17 71.98 15.23 69.80L15.23 69.80Q15.10 68.71 15.64 68.31L15.64 68.31Q15.91 68.03 16.46 67.90L16.46 67.90Q17.14 67.76 20.26 67.76L20.26 67.76Q24.07 67.63 29.38 66.13L29.38 66.13Q30.33 65.99 39.17 62.46L39.17 62.46Q47.46 59.33 53.04 62.46L53.04 62.46Q54.40 63.14 55.62 64.23L55.62 64.23Q56.71 65.18 56.71 67.90L56.71 67.90Q53.04 70.48 50.18 76.47L50.18 76.47L52.36 78.51Q52.63 78.91 52.63 79.32L52.63 79.32L51.68 79.87Q48.82 80.00 45.42 81.23L45.42 81.23Q50.05 83.13 50.59 86.67L50.59 86.67Q46.51 91.29 42.70 98.09L42.70 98.09Q43.79 98.36 56.03 94.69L56.03 94.69Q57.12 94.96 57.53 95.37ZM43.93 65.72L43.93 65.72L24.21 71.16L26.52 80.95Q37.54 78.51 44.34 76.06L44.34 76.06L46.24 69.67Q46.92 65.99 43.93 65.72ZM28.56 96.87L28.56 96.87Q27.74 98.36 25.84 98.36L25.84 98.36Q23.12 96.73 19.45 90.75L19.45 90.75L19.58 88.98Q25.84 88.98 28.15 92.92L28.15 92.92Q28.56 93.60 28.56 96.87Z" stroke="#000" fill="black" /></svg>