<svg width="136" height="136" version="1.1" xmlns="http://www.w3.org/2000/svg" xmlns:xlink="http://www.w3.org/1999/xlink"><path d="M120.77 88.25L121.99 89.47L121.31 90.15Q102.68 91.51 98.06 88.66L98.06 88.66Q87.58 74.78 79.29 60.50L79.29 60.50L78.88 111.91Q78.88 115.58 74.94 119.39L74.94 119.39Q72.90 119.39 71.54 115.72L71.54 115.72Q70.72 113.68 70.31 113.00L70.31 113.00Q69.22 108.24 70.99 99.13L70.99 99.13Q71.67 96.00 71.94 94.10L71.94 94.10Q73.30 83.35 73.30 61.46L73.30 61.46Q62.83 80.63 45.42 93.55L45.42 93.55Q44.20 93.55 44.06 92.60L44.06 92.60Q46.51 88.93 57.66 74.51L57.66 74.51Q68.14 61.18 71.81 51.39L71.81 51.39L62.15 52.48Q58.07 52.34 55.08 49.08L55.08 49.08L56.30 47.99L73.44 45.14L73.85 44.59Q73.44 40.92 73.71 29.77L73.71 29.77Q73.71 20.11 70.18 14.81L70.18 14.81Q68.54 12.50 68.54 10.73L68.54 10.73Q71.26 7.87 78.34 12.63L78.34 12.63Q81.33 14.67 82.42 16.30L82.42 16.30Q82.69 16.71 82.69 17.80L82.69 17.80Q82.69 18.34 81.46 21.61L81.46 21.61L81.19 22.42Q79.56 28.82 79.56 42.82L79.56 42.82Q81.60 42.55 89.35 39.83L89.35 39.83Q97.51 36.98 102.00 40.10L102.00 40.10Q102.54 40.51 103.09 41.06L103.09 41.06Q103.22 41.87 102.95 42.42L102.95 42.42Q102.68 43.10 102.14 43.23L102.14 43.23L79.56 49.35Q79.29 50.30 79.29 54.93L79.29 54.93Q91.80 68.39 92.62 69.21L92.62 69.21Q100.64 77.23 108.12 81.31L108.12 81.31L120.77 88.25ZM51.54 47.99L51.54 47.99Q51.41 50.17 37.26 53.30L37.26 53.30Q36.72 54.79 36.86 62.82L36.86 62.82L44.06 64.99Q48.01 66.62 48.42 69.34L48.42 69.34Q48.82 72.47 47.46 72.74L47.46 72.74L45.15 72.74L45.02 72.74Q41.89 70.98 36.86 66.22L36.86 66.22Q36.18 77.64 35.50 109.19L35.50 109.19Q33.73 113.27 32.23 114.36L32.23 114.36Q30.74 114.36 29.78 113.00L29.78 113.00Q25.98 107.42 28.02 98.58L28.02 98.58L29.65 90.97Q30.74 85.39 31.01 68.94L31.01 68.94Q31.01 66.76 31.01 65.13L31.01 65.13Q24.48 78.73 8.30 94.78L8.30 94.78Q5.30 97.77 3.13 97.77L3.13 97.77L3.13 96.27Q20.94 73.15 28.02 57.51L28.02 57.51Q28.70 56.29 29.10 55.06L29.10 55.06L18.63 56.70Q11.83 57.38 7.75 54.38L7.75 54.38Q7.75 53.16 9.66 52.89L9.66 52.89L28.83 49.49Q30.19 49.22 31.42 48.94L31.42 48.94L31.69 32.76Q31.28 22.97 27.61 17.53L27.61 17.53L27.47 15.49Q30.33 13.04 34.82 16.58L34.82 16.58Q38.08 19.02 38.90 19.43L38.90 19.43Q40.39 21.06 40.53 22.42L40.53 22.42Q37.54 36.02 37.26 43.78L37.26 43.78Q37.26 45.27 37.26 46.90L37.26 46.90L44.88 45.41Q49.23 45.00 51.54 47.99Z" stroke="#000" fill="black" /></svg>