<?xml version="1.0" encoding="UTF-8" standalone="no"?>
        <svg 
    viewBox="3.0029296875 -85.986328125 447.8759765625 56.8359375"
    width="444.873046875"
    height="142.822265625"
   xmlns="http://www.w3.org/2000/svg"
   xmlns:svg="http://www.w3.org/2000/svg">
   <path d="M28.05-90.01L28.05-128.10L54.57-125.54Q54.35-123.85 53.28-122.75Q52.22-121.66 49.07-121.22L49.07-121.22L49.07-90.89L57.42-102.91Q57.42-102.91 59.73-100.85Q62.04-98.80 65.30-95.84Q68.55-92.87 71.41-90.01L71.41-90.01L90.89-90.01L90.89-127.81L117.48-125.24Q117.26-123.71 116.16-122.53Q115.06-121.36 111.91-120.92L111.91-120.92L111.91-90.01L119.68-90.01L129.27-103.34Q129.27-103.34 131.03-101.88Q132.79-100.42 135.50-98.07Q138.21-95.73 141.14-93.13Q144.07-90.53 146.41-88.18L146.41-88.18Q145.75-85.77 142.24-85.77L142.24-85.77L115.21-85.77Q119.90-69.95 128.94-58.19Q137.99-46.44 148.83-40.80L148.83-40.80L148.83-38.96Q141.72-33.62 138.21-26.66Q134.69-19.70 133.67-10.99L133.67-10.99Q127.15-19.12 122.94-31.16Q118.73-43.21 116.24-57.31Q113.75-71.41 112.35-85.77L112.35-85.77L111.91-85.77L111.91 6.59Q111.91 7.62 109.28 9.38Q106.64 11.13 102.76 12.52Q98.88 13.92 94.92 13.92L94.92 13.92L90.89 13.92L90.89-43.80Q77.05-23.80 54.79-9.74L54.79-9.74L53.10-11.28Q61.96-20.80 68.63-32.96Q75.29-45.12 79.87-58.63Q84.45-72.14 87.01-85.77L87.01-85.77L71.41-85.77L71.26-86.28Q70.39-85.77 69.14-85.77L69.14-85.77L49.07-85.77L49.07-77.86Q59.03-74.63 64.38-70.31Q69.73-65.99 71.37-61.49Q73.02-56.98 71.89-53.17Q70.75-49.37 67.79-47.20Q64.82-45.04 60.90-45.41Q56.98-45.78 53.10-49.66L53.10-49.66Q53.54-55.74 52.29-61.96Q51.05-68.19 49.07-73.54L49.07-73.54L49.07 8.28Q49.07 9.08 46.51 10.47Q43.95 11.87 40.10 13.00Q36.25 14.14 32.23 14.14L32.23 14.14L28.05 14.14L28.05-43.07Q23.22-36.84 17.36-31.27Q11.50-25.71 4.61-20.87L4.61-20.87L3.00-22.34Q9.16-30.69 13.81-41.05Q18.46-51.42 21.68-62.88Q24.90-74.34 26.88-85.77L26.88-85.77L6.59-85.77L5.42-90.01L28.05-90.01ZM207.93-56.10L207.93-73.68L189.77-73.68L189.77-56.10L207.93-56.10ZM237.89-100.05L237.89-113.67L237.89-124.22L261.04-113.67L268.07-113.67L278.69-124.22L299.56-105.76Q297.95-103.56 292.68-103.34L292.68-103.34Q289.75-98.51 285.68-92.21Q281.62-85.91 277.00-79.54Q272.39-73.17 267.92-68.12L267.92-68.12Q277.00-63.35 282.75-56.65Q288.50-49.95 291.25-42.66Q293.99-35.38 293.99-28.93L293.99-28.93Q293.99-21.31 291.58-15.45Q289.16-9.59 283.48-6.26Q277.81-2.93 268.07-2.86L268.07-2.86Q268.07-5.93 267.81-9.63Q267.55-13.33 267.08-16.44Q266.60-19.56 265.94-21.02L265.94-21.02Q264.04-24.32 259.20-25.78L259.20-25.78L259.20-27.47Q261.11-27.47 263.75-27.47Q266.38-27.47 267.63-27.47L267.63-27.47Q269.46-27.47 270.63-28.20L270.63-28.20Q272.09-29.08 272.86-30.80Q273.63-32.52 273.63-35.67L273.63-35.67Q273.63-43.43 271.47-52.04Q269.31-60.64 263.96-67.68L263.96-67.68Q265.06-72.95 266.20-80.38Q267.33-87.82 268.25-95.54Q269.17-103.27 269.53-109.50L269.53-109.50L258.91-109.50L258.91 8.13Q258.91 8.86 256.86 10.40Q254.81 11.94 250.96 13.26Q247.12 14.58 241.77 14.58L241.77 14.58L237.89 14.58L237.89-96.31Q237.01-95.87 235.62-95.87L235.62-95.87L194.82-95.87Q192.85-91.55 190.61-87.60Q188.38-83.64 186.04-79.98L186.04-79.98L191.82-77.86L205.81-77.86L216.14-89.87L237.74-72.88Q236.65-71.56 234.27-70.13Q231.88-68.70 228.30-67.97L228.30-67.97L228.30-8.42Q228.30-1.83 226.79 2.86Q225.29 7.54 220.42 10.29Q215.55 13.04 205.52 13.92L205.52 13.92Q205.30 9.01 204.82 5.42Q204.35 1.83 203.25-0.44L203.25-0.44Q202.15-2.71 200.28-4.28Q198.41-5.86 194.24-6.74L194.24-6.74L194.24-8.72Q194.24-8.72 196.55-8.61Q198.85-8.50 201.56-8.39Q204.27-8.28 205.52-8.28L205.52-8.28Q206.98-8.28 207.46-8.94Q207.93-9.59 207.93-10.77L207.93-10.77L207.93-28.93L189.77-28.93L189.77 8.13Q189.77 9.08 185.41 11.43Q181.05 13.77 173.36 13.77L173.36 13.77L169.78 13.77L169.78-61.38Q162.67-54.93 154.32-49.95L154.32-49.95L152.86-51.12Q159.52-59.91 165.20-71.30Q170.87-82.69 175.05-95.87L175.05-95.87L154.61-95.87L153.44-100.05L176.22-100.05Q180.25-113.53 182.08-128.25L182.08-128.25L209.25-121.36Q208.52-118.07 203.39-118.07L203.39-118.07Q201.93-113.23 200.28-108.73Q198.63-104.22 196.80-100.05L196.80-100.05L211.38-100.05L221.56-114.18Q221.56-114.18 224.23-111.95Q226.90-109.72 230.71-106.46Q234.52-103.20 237.89-100.05L237.89-100.05ZM207.93-33.18L207.93-51.93L189.77-51.93L189.77-33.18L207.93-33.18ZM313.04 12.74L303.59-7.98Q309.59-8.42 320.03-9.59Q330.47-10.77 343.65-12.45L343.65-12.45Q344.90-18.31 346.14-25.20Q347.39-32.08 348.27-37.50L348.27-37.50L371.85-31.05Q370.83-27.98 366.14-28.20L366.14-28.20Q362.99-25.20 358.74-21.09Q354.49-16.99 350.10-13.18L350.10-13.18L375.15-16.48Q379.10-27.76 380.20-40.03Q381.30-52.29 381.30-65.26L381.30-65.26L381.30-77.27Q380.64-75.44 377.71-75.44L377.71-75.44L304.98-75.44L303.74-79.61L357.42-79.61L362.55-86.28L359.40-86.13L356.10-86.13L356.10-89.72L325.34-89.72L325.34-85.77Q325.34-85.25 323.11-84.38Q320.87-83.50 317.54-82.76Q314.21-82.03 310.99-82.03L310.99-82.03L307.76-82.03L307.76-119.53L329.37-117.63Q329.30-116.46 328.45-115.61Q327.61-114.77 325.34-114.48L325.34-114.48L325.34-93.90L331.20-93.90L331.20-126.42L355.08-124.51Q354.93-123.05 353.94-122.13Q352.95-121.22 350.24-120.78L350.24-120.78L350.24-93.90L356.10-93.90L356.10-119.53L379.61-117.63Q379.39-116.38 378.52-115.43Q377.64-114.48 375.15-114.18L375.15-114.18L375.15-90.01Q375.15-89.58 373.72-88.92Q372.29-88.26 370.02-87.60L370.02-87.60Q372.44-85.69 375.59-83.13Q378.74-80.57 381.30-78.30L381.30-78.30L381.30-121.51L403.78-113.67L407.23-113.67L416.82-125.10L434.99-110.23Q434.18-109.35 432.90-108.62Q431.62-107.89 428.98-107.37L428.98-107.37L428.98-13.33Q428.98-10.62 430.37-10.62L430.37-10.62L430.96-10.62Q431.18-10.62 431.43-10.62Q431.69-10.62 431.98-10.62L431.98-10.62Q432.57-10.62 433.15-10.91Q433.74-11.21 434.40-12.45L434.40-12.45Q435.21-13.99 436.30-17.80Q437.40-21.61 438.57-26.33Q439.75-31.05 440.70-35.38L440.70-35.38L442.24-35.38L442.97-10.99Q445.97-9.16 446.92-7.32Q447.88-5.49 447.88-2.56L447.88-2.56Q447.88 2.93 443.23 6.12Q438.57 9.30 428.54 9.30L428.54 9.30L422.83 9.30Q416.89 9.30 414.00 7.76Q411.11 6.23 410.16 2.67Q409.20-0.88 409.20-6.88L409.20-6.88L409.20-109.50L400.78-109.50L400.78-65.41Q400.78-54.57 399.57-43.51Q398.36-32.45 394.19-21.97Q390.01-11.50 381.26-2.31Q372.51 6.88 357.42 14.14L357.42 14.14L356.10 13.04Q362.26 7.10 366.61 0.51Q370.97-6.08 373.83-13.04L373.83-13.04Q364.38-8.79 350.50-3.26Q336.62 2.27 317.29 9.16L317.29 9.16Q315.82 12.30 313.04 12.74L313.04 12.74ZM311.28-34.20L311.28-65.26L311.28-72.73L330.91-65.26L349.95-65.26L358.37-74.27L376.03-61.23Q375.51-60.42 374.16-59.62Q372.80-58.81 370.83-58.37L370.83-58.37L370.83-40.94Q370.75-40.43 367.97-39.40Q365.19-38.38 361.45-37.57Q357.71-36.77 354.79-36.77L354.79-36.77L351.27-36.77L351.27-41.53L330.18-41.53L330.18-39.77Q330.18-39.11 328.23-37.94Q326.29-36.77 323.36-35.82L323.36-35.82Q332.59-32.81 336.36-28.67Q340.14-24.54 339.95-20.62Q339.77-16.70 336.95-14.17Q334.13-11.65 330.03-11.68Q325.93-11.72 322.05-15.60L322.05-15.60Q322.49-20.65 321.50-25.67Q320.51-30.69 319.04-34.64L319.04-34.64Q316.55-34.20 313.77-34.20L313.77-34.20L311.28-34.20ZM330.18-45.78L351.27-45.78L351.27-61.08L330.18-61.08L330.18-45.78Z"/>
    </svg>
        