<svg width="136" height="136" version="1.1" xmlns="http://www.w3.org/2000/svg" xmlns:xlink="http://www.w3.org/1999/xlink"><path d="M113.29 91.73L113.29 91.73Q110.43 93.09 108.94 92.55L108.94 92.55L102.54 85.34L100.91 83.84L96.42 80.58Q95.34 79.49 95.06 78.27L95.06 78.27Q96.56 78.27 104.45 79.76L104.45 79.76Q107.17 80.31 109.07 80.31L109.07 80.31Q115.06 75.00 107.17 64.12L107.17 64.12Q103.36 58.82 99.14 55.96L99.14 55.96L95.74 53.92L95.47 53.65Q94.25 52.43 94.25 51.07L94.25 51.07Q94.25 49.44 96.97 44.95L96.97 44.95Q97.51 43.86 97.78 43.18L97.78 43.18L103.22 29.85Q104.99 25.50 98.74 27.00L98.74 27.00Q97.24 27.27 87.86 30.67L87.86 30.67L86.90 31.08L86.50 31.76L85.41 41.96L85.27 42.64L85.14 112.40Q85.14 121.79 82.14 125.32L82.14 125.32Q80.10 125.32 79.56 123.15L79.56 123.15Q79.02 119.88 78.74 114.72L78.74 114.72Q78.47 105.88 79.15 64.26L79.15 64.26Q79.29 56.92 79.29 51.07L79.29 51.07L79.29 39.51Q79.15 38.69 79.15 37.88L79.15 37.88Q78.61 33.80 75.07 26.86L75.07 26.86Q75.07 25.50 76.84 25.09L76.84 25.09Q80.24 24.96 83.23 26.72L83.23 26.72Q83.78 27.00 84.59 27.54L84.59 27.54Q97.65 22.78 101.18 20.88L101.18 20.88Q103.09 19.92 104.58 18.84L104.58 18.84Q107.98 18.84 113.42 22.64L113.42 22.64Q115.74 24.28 116.55 25.77L116.55 25.77Q116.96 26.45 116.96 27.00L116.96 27.00Q116.96 28.08 113.70 30.12L113.70 30.12L111.52 31.76L111.52 31.76Q101.46 43.04 100.23 50.12L100.23 50.12Q100.10 50.39 100.10 50.80L100.10 50.80L110.30 59.36Q119.00 67.39 119.00 76.36L119.00 76.36Q119.00 84.80 113.29 91.73ZM68.27 31.08L68.27 31.08Q68.27 32.30 65.69 33.52L65.69 33.52L44.61 37.88Q43.25 39.92 38.76 49.71L38.76 49.71Q41.07 52.70 47.87 49.84L47.87 49.84Q55.22 46.58 56.85 46.17L56.85 46.17Q59.70 45.63 61.74 46.99L61.74 46.99Q65.82 49.57 66.64 50.80L66.64 50.80Q67.18 51.75 67.18 52.84L67.18 52.84Q63.78 57.19 65.82 77.72L65.82 77.72Q67.46 92.96 67.18 96.08L67.18 96.08Q66.78 100.71 62.42 105.33L62.42 105.33Q61.61 106.15 60.93 106.69L60.93 106.69Q58.21 106.42 49.78 95.81L49.78 95.81Q48.96 94.72 48.55 94.18L48.55 94.18L57.80 94.59Q60.11 91.19 58.89 63.85L58.89 63.85Q58.62 59.23 58.62 57.60L58.62 57.60Q58.62 52.56 56.85 51.48L56.85 51.48Q52.90 52.02 42.43 54.88L42.43 54.88Q41.75 56.64 41.48 62.90L41.48 62.90L41.34 63.99Q47.87 62.22 49.64 62.36L49.64 62.36Q52.50 62.63 54.26 64.80L54.26 64.80Q53.86 65.62 52.36 66.16L52.36 66.16L42.84 67.80L40.94 68.34L40.53 77.72Q47.74 75.55 48.01 75.55L48.01 75.55Q53.31 74.60 55.49 78.13L55.49 78.13Q55.22 79.76 41.07 80.99L41.07 80.99L40.26 81.12Q39.71 90.78 39.03 93.09L39.03 93.09Q37.94 97.31 35.22 99.89L35.22 99.89Q32.78 99.89 31.42 95.68L31.42 95.68Q30.87 94.32 30.87 93.36L30.87 93.36Q30.87 91.73 32.91 86.97L32.91 86.97Q33.18 86.56 33.32 86.16L33.32 86.16Q37.81 75.00 36.45 61.68L36.45 61.68Q36.18 58.55 35.50 55.96L35.50 55.96Q23.39 74.73 12.92 82.62L12.92 82.62Q10.06 84.80 6.94 86.56L6.94 86.56L6.12 86.43Q23.80 65.35 30.87 53.52L30.87 53.52Q35.22 46.31 38.08 39.24L38.08 39.24L27.20 40.19Q22.98 40.05 20.13 37.33L20.13 37.33Q20.13 36.24 21.49 35.97L21.49 35.97L28.02 35.29Q31.82 34.88 39.85 33.52L39.85 33.52Q43.25 25.91 43.38 20.60L43.38 20.60Q43.38 19.65 42.43 13.80L42.43 13.80Q42.30 12.85 42.16 12.17L42.16 12.17Q44.34 11.36 46.51 11.63L46.51 11.63Q47.06 11.63 47.60 11.76L47.60 11.76Q51.14 12.44 52.77 15.03L52.77 15.03Q52.90 15.30 53.04 15.44L53.04 15.44Q53.72 16.52 51.95 19.11L51.95 19.11L51.27 20.33L46.78 31.76Q48.01 31.62 55.76 29.31L55.76 29.31Q64.06 26.72 68.27 31.08Z" stroke="#000" fill="black" /></svg>